HIERARCHY
ROOT Hip
{
	OFFSET 0 1.131 0.0052
	CHANNELS 6 Xposition Yposition Zposition Xrotation Yrotation Zrotation
	JOINT Abdomen
	{
		OFFSET 0 -0.047353 -0.05
		CHANNELS 3 Xrotation Zrotation Yrotation
		JOINT Chest
		{
			OFFSET 0 0.132153 0.007439
			CHANNELS 3 Xrotation Zrotation Yrotation
			JOINT Neck
			{
				OFFSET 0 0.3078 0.006161
				CHANNELS 3 Xrotation Zrotation Yrotation
				JOINT Head_comp
				{
					OFFSET 0 0.0884 0.013
					CHANNELS 3 Xrotation Yrotation Zrotation
					End Site
					{
						OFFSET -0 0.156 0.0624
					}
				}
			}
			JOINT Left_Collar
			{
				OFFSET 0.02282 0.250342 0.017193
				CHANNELS 2 Yrotation Zrotation
				JOINT Left_Shoulder
				{
					OFFSET 0.15421 0 0
					CHANNELS 3 Xrotation Yrotation Zrotation
					JOINT Left_Forearm
					{
						OFFSET 0.265212 0 0
						CHANNELS 2 Yrotation Xrotation
						JOINT Left_Hand
						{
							OFFSET 0.27571 0 0
							CHANNELS 2 Zrotation Yrotation
							JOINT L1ProxPhalanx
							{
								OFFSET 0.014142 0.001733 0.014142
								CHANNELS 3 Yrotation Zrotation Xrotation
								JOINT L1MidPhalanx
								{
									OFFSET 0.04 0 0
									CHANNELS 1 Zrotation
									JOINT L1DistPhalanx
									{
										OFFSET 0.035 0 0
										CHANNELS 1 Zrotation
										End Site
										{
											OFFSET 0.029 -0 -0
										}
									}
								}
							}
							JOINT L2ProxPhalanx
							{
								OFFSET 0.0821037 0.001578 0.0219996
								CHANNELS 2 Yrotation Zrotation
								JOINT L2MidPhalanx
								{
									OFFSET 0.04 0 0
									CHANNELS 1 Zrotation
									JOINT L2DistPhalanx
									{
										OFFSET 0.028 0 0
										CHANNELS 1 Zrotation
										End Site
										{
											OFFSET 0.02 -0 -0
										}
									}
								}
							}
							JOINT L3ProxPhalanx
							{
								OFFSET 0.083 0 0
								CHANNELS 2 Yrotation Zrotation
								JOINT L3MidPhalanx
								{
									OFFSET 0.053 0 0
									CHANNELS 1 Zrotation
									JOINT L3DistPhalanx
									{
										OFFSET 0.03 0 0
										CHANNELS 1 Zrotation
										End Site
										{
											OFFSET 0.023 -0 -0
										}
									}
								}
							}
							JOINT L4ProxPhalanx
							{
								OFFSET 0.077274 -0.000761 -0.0207055
								CHANNELS 2 Yrotation Zrotation
								JOINT L4MidPhalanx
								{
									OFFSET 0.05 0 0
									CHANNELS 1 Zrotation
									JOINT L4DistPhalanx
									{
										OFFSET 0.03 0 0
										CHANNELS 1 Zrotation
										End Site
										{
											OFFSET 0.023 -0 -0
										}
									}
								}
							}
							JOINT L5ProxPhalanx
							{
								OFFSET 0.0675499 -0.001644 -0.039
								CHANNELS 2 Yrotation Zrotation
								JOINT L5MidPhalanx
								{
									OFFSET 0.04 0 0
									CHANNELS 1 Zrotation
									JOINT L5DistPhalanx
									{
										OFFSET 0.021 0 0
										CHANNELS 1 Zrotation
										End Site
										{
											OFFSET 0.022 -0 -0
										}
									}
								}
							}
						}
					}
				}
			}
			JOINT Right_Collar
			{
				OFFSET -0.02282 0.250342 0.017193
				CHANNELS 2 Yrotation Zrotation
				JOINT Right_Shoulder
				{
					OFFSET -0.15421 0 0
					CHANNELS 3 Xrotation Yrotation Zrotation
					JOINT Right_Forearm
					{
						OFFSET -0.265212 0 0
						CHANNELS 2 Yrotation Xrotation
						JOINT Right_Hand
						{
							OFFSET -0.27571 3e-006 0
							CHANNELS 2 Zrotation Yrotation
							JOINT R1ProxPhalanx
							{
								OFFSET -0.014142 0.001733 0.014142
								CHANNELS 3 Yrotation Zrotation Xrotation
								JOINT R1MidPhalanx
								{
									OFFSET -0.04 0 0
									CHANNELS 1 Zrotation
									JOINT R1DistPhalanx
									{
										OFFSET -0.035 0 0
										CHANNELS 1 Zrotation
										End Site
										{
											OFFSET -0.029 -0 -0
										}
									}
								}
							}
							JOINT R2ProxPhalanx
							{
								OFFSET -0.0821037 0.001578 0.0219996
								CHANNELS 2 Yrotation Zrotation
								JOINT R2MidPhalanx
								{
									OFFSET -0.04 0 0
									CHANNELS 1 Zrotation
									JOINT R2DistPhalanx
									{
										OFFSET -0.028 0 0
										CHANNELS 1 Zrotation
										End Site
										{
											OFFSET -0.02 -0 -0
										}
									}
								}
							}
							JOINT R3ProxPhalanx
							{
								OFFSET -0.083 0 0
								CHANNELS 2 Yrotation Zrotation
								JOINT R3MidPhalanx
								{
									OFFSET -0.053 0 0
									CHANNELS 1 Zrotation
									JOINT R3DistPhalanx
									{
										OFFSET -0.03 0 0
										CHANNELS 1 Zrotation
										End Site
										{
											OFFSET -0.023 -0 -0
										}
									}
								}
							}
							JOINT R4ProxPhalanx
							{
								OFFSET -0.077274 -0.000761 -0.0207055
								CHANNELS 2 Yrotation Zrotation
								JOINT R4MidPhalanx
								{
									OFFSET -0.05 0 0
									CHANNELS 1 Zrotation
									JOINT R4DistPhalanx
									{
										OFFSET -0.03 0 0
										CHANNELS 1 Zrotation
										End Site
										{
											OFFSET -0.023 -0 -0
										}
									}
								}
							}
							JOINT R5ProxPhalanx
							{
								OFFSET -0.0675499 -0.001644 -0.039
								CHANNELS 2 Yrotation Zrotation
								JOINT R5MidPhalanx
								{
									OFFSET -0.04 0 0
									CHANNELS 1 Zrotation
									JOINT R5DistPhalanx
									{
										OFFSET -0.021 0 0
										CHANNELS 1 Zrotation
										End Site
										{
											OFFSET -0.022 -0 -0
										}
									}
								}
							}
						}
					}
				}
			}
		}
	}
	JOINT Left_Thigh
	{
		OFFSET 0.1118 -0.1612 -0.0442
		CHANNELS 3 Xrotation Zrotation Yrotation
		JOINT Left_Shin
		{
			OFFSET 0 -0.477856 0
			CHANNELS 1 Xrotation
			JOINT Left_Foot
			{
				OFFSET 0 -0.431952 0
				CHANNELS 2 Xrotation Zrotation
				JOINT Left_Toe
				{
					OFFSET 0 -0.0442 0.119
					CHANNELS 1 Xrotation
					End Site
					{
						OFFSET -0 -0 0.07
					}
				}
			}
		}
	}
	JOINT Right_Thigh
	{
		OFFSET -0.1118 -0.1612 -0.0442
		CHANNELS 3 Xrotation Zrotation Yrotation
		JOINT Right_Shin
		{
			OFFSET 0 -0.477856 0
			CHANNELS 1 Xrotation
			JOINT Right_Foot
			{
				OFFSET 0 -0.431952 0
				CHANNELS 2 Xrotation Zrotation
				JOINT Right_Toe
				{
					OFFSET 0 -0.0442 0.119
					CHANNELS 1 Xrotation
					End Site
					{
						OFFSET -0 -0 0.07
					}
				}
			}
		}
	}
}
MOTION
Frames: 13
Frame Time: 0.009975
-0.101351 -0.0603097 0.0606505 -8.59209e-014 1.21601e-007 -5.10821e-006 0 0 0 0 0 0 0 0 0 0 0 0 0 0 -0 0 -0 0 0 0 0 -36.7832 -29.9624 77.4898 -4.76427 -12.2444 -6.63439 -16.4575 -31.3511 -13.5114 -0.647911 -24.507 -18.2419 -18.0941 9.02909 -22.0218 -38.2405 -19.3412 17.3445 -18.4185 -40.523 -37.4487 0 0 -0 0 -0 0 0 0 0 37.9386 28.008 73.698 26.2405 28.4472 13.118 18.2167 29.0248 19.6359 0 22.4358 32.6146 28.1246 -8.63175 30.7051 32.2053 23.7634 -7.83088 26.7354 35.1526 30.0193 1.35227 -0.658014 -0.0155328 0.0240216 -1.3762 0.658202 0 1.36367 -0.65801 -0.0156638 1.70755e-006 -1.36358 0.658202 0 
-0.101351 -0.0603097 0.0606505 -8.59209e-014 1.21601e-007 -5.10821e-006 0 0 0 0 0 0 0 0 0 0 0 0 0 0 -0 0 -0 0 0 0 0 -36.7832 -29.9624 77.4898 -4.76427 -12.2444 -6.63439 -16.4575 -31.3511 -13.5114 -0.647911 -24.507 -18.2419 -18.0941 9.02909 -22.0218 -38.2405 -19.3412 17.3445 -18.4185 -40.523 -37.4487 0 0 -0 0 -0 0 0 0 0 37.9386 28.008 73.698 26.2405 28.4472 13.118 18.2167 29.0248 19.6359 0 22.4358 32.6146 28.1246 -8.63175 30.7051 32.2053 23.7634 -7.83088 26.7354 35.1526 30.0193 1.35227 -0.658014 -0.0155328 0.0240216 -1.3762 0.658202 0 1.36367 -0.65801 -0.0156638 1.70755e-006 -1.36358 0.658202 0 
-0.0972397 -0.0601096 0.0399007 4.98984e-012 5.0594e-009 -5.08443e-006 0 -0 0 0 -0 0 0 -0 0 -0.710338 0.283186 -8.82137e-006 -1.96805 -32.1144 -2.83694 -38.0121 -42.836 -60.3457 7.4048 10.4147 3.82709 -83.6537 33.3479 81.9834 -28.1468 -27.3058 7.96212 1.60096 -12.111 -3.16696 3.80115 0.320295 -5.65231 0.199208 -2.16645 -15.6714 19.2501 -0.943087 -4.42126 -48.7044 55.529 14.9163 2.82199 23.3943 -2.81252 29.9453 36.9731 67.4227 5.23862 -5.52496 -5.22412 78.6741 -9.61332 86.6287 15.9468 10.9216 -7.17844 -0.942116 9.61201 2.88043 -7.34075 1.79712 0.307976 2.15773 -3.73426 17.0886 -12.0514 -12.2229 -3.76089 46.3825 -56.3712 -10.7996 0.0453793 -0.916977 -0.000728061 0.0239015 -0.069275 0.916982 0 0.0567286 -0.916976 -0.000910145 0 -0.0567213 0.916982 0 
-0.0972662 -0.0601081 0.0390663 5.01491e-012 5.08482e-009 -5.10998e-006 0 -0 0 0 -0 0 0 -0 0 -0.712143 0.278813 -6.74216e-010 -1.97768 -32.2758 -1.3824 -37.7416 -39.9315 -61.7646 7.43848 10.467 3.84627 -83.8396 33.632 82.084 -28.1124 -27.3425 8.006 1.75938 -11.9708 -3.10749 3.81974 0.482602 -5.47971 0.290662 -2.18475 -15.5894 19.5479 -0.857374 -4.4728 -48.8282 55.9789 15.0918 2.83597 23.5119 -2.21714 29.8129 35.0461 68.3717 5.26182 -5.55271 -5.25036 78.8056 -9.77764 86.6989 15.851 10.8759 -7.21852 -1.09727 9.4593 2.81953 -7.37677 1.64553 0.108518 2.07812 -3.74543 17.0137 -12.313 -12.3748 -3.74978 46.495 -56.8253 -10.9543 -0.0072279 -0.915307 0.000115439 0.0240216 -0.0167947 0.915312 0 0.00417837 -0.915307 -6.67494e-005 0 -0.00417784 0.915312 0 
-0.0972972 -0.0601076 0.0390532 -7.4379e-011 3.37043e-010 -5.10997e-006 0 -0 0 0 -0 0 0 -0 0 -0.712112 0.279169 6.53191e-013 -1.97768 -32.2758 -1.37216 -37.738 -39.9117 -61.773 7.43848 10.467 3.84627 -83.8396 33.632 82.084 -28.1124 -27.3425 8.006 1.75938 -11.9708 -3.10749 3.81974 0.482602 -5.47971 0.290662 -2.18475 -15.5894 19.5479 -0.857374 -4.4728 -48.8282 55.9789 15.0918 2.83597 23.5119 -2.21317 29.8108 35.0338 68.3763 5.26182 -5.55271 -5.25036 78.8056 -9.77764 86.6989 15.851 10.8759 -7.21852 -1.09727 9.4593 2.81953 -7.37677 1.64553 0.108518 2.07812 -3.74543 17.0137 -12.313 -12.3748 -3.74978 46.495 -56.8253 -10.9543 -0.00805243 -0.913358 0.000128359 0.0240216 -0.0159702 0.913364 0 0.00335383 -0.913358 -5.34401e-005 0 -0.00335341 0.913364 0 
-0.0972977 -0.0601076 0.0390531 7.56735e-011 2.98731e-010 -5.10997e-006 0 -0 0 0 -0 0 0 -0 0 -0.712111 0.27919 7.2235e-016 -1.97768 -32.2758 -1.37216 -37.738 -39.9117 -61.773 7.43848 10.467 3.84627 -83.8396 33.632 82.084 -28.1124 -27.3425 8.006 1.75938 -11.9708 -3.10749 3.81974 0.482602 -5.47971 0.290662 -2.18475 -15.5894 19.5479 -0.857374 -4.4728 -48.8282 55.9789 15.0918 2.83597 23.5119 -2.21317 29.8108 35.0338 68.3763 5.26182 -5.55271 -5.25036 78.8056 -9.77764 86.6989 15.851 10.8759 -7.21852 -1.09727 9.4593 2.81953 -7.37677 1.64553 0.108518 2.07812 -3.74543 17.0137 -12.313 -12.3748 -3.74978 46.495 -56.8253 -10.9543 -0.00806026 -0.913323 0.000128479 0.0240216 -0.0159624 0.913329 0 0.00334601 -0.913323 -5.33418e-005 0 -0.00334558 0.913329 0 
-0.0972977 -0.0601076 0.0390531 -1.30608e-011 2.98412e-010 -5.10997e-006 0 -0 0 0 -0 0 0 -0 0 -0.712111 0.27919 -0 -1.97768 -32.2758 -1.37216 -37.738 -39.9117 -61.773 7.43848 10.467 3.84627 -83.8396 33.632 82.084 -28.1124 -27.3425 8.006 1.75938 -11.9708 -3.10749 3.81974 0.482602 -5.47971 0.290662 -2.18475 -15.5894 19.5479 -0.857374 -4.4728 -48.8282 55.9789 15.0918 2.83597 23.5119 -2.21317 29.8108 35.0338 68.3763 5.26182 -5.55271 -5.25036 78.8056 -9.77764 86.6989 15.851 10.8759 -7.21852 -1.09727 9.4593 2.81953 -7.37677 1.64553 0.108518 2.07812 -3.74543 17.0137 -12.313 -12.3748 -3.74978 46.495 -56.8253 -10.9543 -0.0080603 -0.913323 0.00012848 0.0240216 -0.0159624 0.913328 0 0.00334596 -0.913323 -5.33414e-005 1.68193e-006 -0.00334554 0.913328 0 
-0.0972977 -0.0601076 0.0390531 -1.36522e-013 2.98413e-010 -5.10997e-006 0 -0 0 0 -0 0 0 -0 0 -0.712111 0.27919 1.94128e-019 -1.97768 -32.2758 -1.37216 -37.738 -39.9117 -61.773 7.43848 10.467 3.84627 -83.8396 33.632 82.084 -28.1124 -27.3425 8.006 1.75938 -11.9708 -3.10749 3.81974 0.482602 -5.47971 0.290662 -2.18475 -15.5894 19.5479 -0.857374 -4.4728 -48.8282 55.9789 15.0918 2.83597 23.5119 -2.21317 29.8108 35.0338 68.3763 5.26182 -5.55271 -5.25036 78.8056 -9.77764 86.6989 15.851 10.8759 -7.21852 -1.09727 9.4593 2.81953 -7.37677 1.64553 0.108518 2.07812 -3.74543 17.0137 -12.313 -12.3748 -3.74978 46.495 -56.8253 -10.9543 -0.00806029 -0.913323 0.000128479 0.0240216 -0.0159624 0.913328 0 0.00334597 -0.913323 -5.33415e-005 1.70755e-006 -0.00334725 0.913328 0 
-0.0972977 -0.0601076 0.0390531 -1.67754e-011 2.98413e-010 -5.10997e-006 0 -0 0 0 -0 0 0 -0 0 -0.712111 0.27919 -1.94128e-019 -1.97768 -32.2758 -1.37216 -37.738 -39.9117 -61.773 7.43848 10.467 3.84627 -83.8396 33.632 82.084 -28.1124 -27.3425 8.006 1.75938 -11.9708 -3.10749 3.81974 0.482602 -5.47971 0.290662 -2.18475 -15.5894 19.5479 -0.857374 -4.4728 -48.8282 55.9789 15.0918 2.83597 23.5119 -2.21317 29.8108 35.0338 68.3763 5.26182 -5.55271 -5.25036 78.8056 -9.77764 86.6989 15.851 10.8759 -7.21852 -1.09727 9.4593 2.81953 -7.37677 1.64553 0.108518 2.07812 -3.74543 17.0137 -12.313 -12.3748 -3.74978 46.495 -56.8253 -10.9543 -0.00806029 -0.913323 0.000128479 0.0240216 -0.0159624 0.913328 0 0.00334597 -0.913323 -5.33415e-005 1.70755e-006 -0.00334726 0.913328 0 
-0.0972977 -0.0601076 0.0390531 7.7658e-012 2.98413e-010 -5.10997e-006 0 -0 0 0 -0 0 0 -0 0 -0.712111 0.27919 -1.94128e-019 -1.97768 -32.2758 -1.37216 -37.738 -39.9117 -61.773 7.43848 10.467 3.84627 -83.8396 33.632 82.084 -28.1124 -27.3425 8.006 1.75938 -11.9708 -3.10749 3.81974 0.482602 -5.47971 0.290662 -2.18475 -15.5894 19.5479 -0.857374 -4.4728 -48.8282 55.9789 15.0918 2.83597 23.5119 -2.21317 29.8108 35.0338 68.3763 5.26182 -5.55271 -5.25036 78.8056 -9.77764 86.6989 15.851 10.8759 -7.21852 -1.09727 9.4593 2.81953 -7.37677 1.64553 0.108518 2.07812 -3.74543 17.0137 -12.313 -12.3748 -3.74978 46.495 -56.8253 -10.9543 -0.00806029 -0.913323 0.000128479 0.0240216 -0.0159624 0.913328 0 0.00334597 -0.913323 -5.33415e-005 2.41484e-006 -0.00334796 0.913328 0 
-0.0972977 -0.0601076 0.0390531 -2.35784e-011 2.9841e-010 -5.10997e-006 0 -0 0 0 -0 0 0 -0 0 -0.712111 0.27919 -1.94128e-019 -1.97768 -32.2758 -1.37216 -37.738 -39.9117 -61.773 7.43848 10.467 3.84627 -83.8396 33.632 82.084 -28.1124 -27.3425 8.006 1.75938 -11.9708 -3.10749 3.81974 0.482602 -5.47971 0.290662 -2.18475 -15.5894 19.5479 -0.857374 -4.4728 -48.8282 55.9789 15.0918 2.83597 23.5119 -2.21317 29.8108 35.0338 68.3763 5.26182 -5.55271 -5.25036 78.8056 -9.77764 86.6989 15.851 10.8759 -7.21852 -1.09727 9.4593 2.81953 -7.37677 1.64553 0.108518 2.07812 -3.74543 17.0137 -12.313 -12.3748 -3.74978 46.495 -56.8253 -10.9543 -0.00806033 -0.913323 0.00012848 0.0240216 -0.0159623 0.913328 0 0.00334427 -0.913323 -5.33147e-005 2.80354e-006 -0.00334722 0.913328 0 
-0.0972977 -0.0601076 0.0390531 -5.09413e-011 2.9841e-010 -5.10997e-006 0 -0 0 0 -0 0 0 -0 0 -0.712111 0.27919 -1.94128e-019 -1.97768 -32.2758 -1.37216 -37.738 -39.9117 -61.773 7.43848 10.467 3.84627 -83.8396 33.632 82.084 -28.1124 -27.3425 8.006 1.75938 -11.9708 -3.10749 3.81974 0.482602 -5.47971 0.290662 -2.18475 -15.5894 19.5479 -0.857374 -4.4728 -48.8282 55.9789 15.0918 2.83597 23.5119 -2.21317 29.8108 35.0338 68.3763 5.26182 -5.55271 -5.25036 78.8056 -9.77764 86.6989 15.851 10.8759 -7.21852 -1.09727 9.4593 2.81953 -7.37677 1.64553 0.108518 2.07812 -3.74543 17.0137 -12.313 -12.3748 -3.74978 46.495 -56.8253 -10.9543 -0.00806033 -0.913323 0.00012848 0.0240216 -0.0159623 0.913328 0 0.00334423 -0.913323 -5.3314e-005 1.73846e-006 -0.00334664 0.913328 0 
-0.0972977 -0.0601076 0.0390531 8.72249e-011 2.98409e-010 -5.10997e-006 0 -0 0 0 -0 0 0 -0 0 -0.712111 0.27919 1.94128e-019 -1.97768 -32.2758 -1.37216 -37.738 -39.9117 -61.773 7.43848 10.467 3.84627 -83.8396 33.632 82.084 -28.1124 -27.3425 8.006 1.75938 -11.9708 -3.10749 3.81974 0.482602 -5.47971 0.290662 -2.18475 -15.5894 19.5479 -0.857374 -4.4728 -48.8282 55.9789 15.0918 2.83597 23.5119 -2.21317 29.8108 35.0338 68.3763 5.26182 -5.55271 -5.25036 78.8056 -9.77764 86.6989 15.851 10.8759 -7.21852 -1.09727 9.4593 2.81953 -7.37677 1.64553 0.108518 2.07812 -3.74543 17.0137 -12.313 -12.3748 -3.74978 46.495 -56.8253 -10.9543 -0.00806034 -0.913323 0.00012848 0.0240216 -0.0159623 0.913328 0 0.00334593 -0.913323 -5.33412e-005 5.12264e-008 -0.00334559 0.913328 0 
